# xmcd
#
# Track frame offsets:
#	150
#	17836
#	33392
#	49071
#	66271
#	82656
#	95798
#	109672
#	127403
#	144396
#	157783
#	174179
#	188394
#	204958
#	217882
#	236418
#	252275
#	266367
#	283816
#	298814
#
# Disc length: 4161 seconds
#
# Revision: 2
# Processed by: cddbd v1.5.1PL0 Copyright (c) Steve Scherf et al.
# Submitted via: audiograbber 1.83.01
#
DISCID=15103f14
DTITLE=1998-05 Country Radio - 1998-05 Country Radio
DYEAR=1998
DGENRE=Country
TTITLE0=Reba and Brooks and Dunn - If You See Him - If You See Her
TTITLE1=George Strait - I Just Want To Dance With You
TTITLE2=Lari White - Stepping Stone
TTITLE3=Trisha Yearwood - There Goes My Baby
TTITLE4=David Kersh - Wonderful Tonight
TTITLE5=Pam Tillis - I Said A Prayer
TTITLE6=Rhett Akins - Drivin' My Life Away
TTITLE7=Wynonna - Always Will
TTITLE8=Big House - Faith
TTITLE9=Burnin' Daylight - Wreckin' Ball
TTITLE10=Mila Mason - The Strong One
TTITLE11=Smokin' Armadillos - Wakin' Up Behind The Wheel
TTITLE12=Melodie Crittenden - I Should've Known
TTITLE13=Brad Hawkins - I'm The One
TTITLE14=Anita Cochran - Will You Be Here
TTITLE15=Monty Holmes - Why'd You Start lookin' So Good
TTITLE16=Philip Claypool - Looking Up From A Long Way Down
TTITLE17=Allison Moorer - A Soft Place To Fall
TTITLE18=Jeff Foxworthy - Totally Committed
TTITLE19=Ruby Lovett - Little Bitty Crack In His Heart
EXTD=
EXTT0=
EXTT1=
EXTT2=
EXTT3=
EXTT4=
EXTT5=
EXTT6=
EXTT7=
EXTT8=
EXTT9=
EXTT10=
EXTT11=
EXTT12=
EXTT13=
EXTT14=
EXTT15=
EXTT16=Country Version\n
EXTT17=
EXTT18=
EXTT19=
PLAYORDER=
